<svg height="480pt" viewBox="-32 0 480 480.00659" width="480pt" xmlns="http://www.w3.org/2000/svg" xmlns:xlink="http://www.w3.org/1999/xlink"><linearGradient id="a"><stop offset="0" stop-color="#e93e3a"/><stop offset=".35" stop-color="#ed683c"/><stop offset=".7" stop-color="#f3903f"/><stop offset="1" stop-color="#fdc70c"/></linearGradient><linearGradient id="b" gradientUnits="userSpaceOnUse" x1="208.003296" x2="208.003296" xlink:href="#a" y1="483.45086" y2="-9.19714"/><linearGradient id="c" gradientUnits="userSpaceOnUse" x1="384.003296" x2="384.003296" xlink:href="#a" y1="483.45086" y2="-9.19714"/><linearGradient id="d" gradientUnits="userSpaceOnUse" x1="352.003296" x2="352.003296" xlink:href="#a" y1="483.45086" y2="-9.19714"/><linearGradient id="e" gradientUnits="userSpaceOnUse" x1="32.003296" x2="32.003296" xlink:href="#a" y1="483.45086" y2="-9.19714"/><linearGradient id="f" gradientUnits="userSpaceOnUse" x1="64.003296" x2="64.003296" xlink:href="#a" y1="483.45086" y2="-9.19714"/><linearGradient id="g" gradientUnits="userSpaceOnUse" x1="184.003296" x2="184.003296" xlink:href="#a" y1="483.45086" y2="-9.19714"/><linearGradient id="h" gradientUnits="userSpaceOnUse" x1="232.003296" x2="232.003296" xlink:href="#a" y1="483.45086" y2="-9.19714"/><g fill="url(#b)"><path d="m256.003906 400.003906h-96c-4.417968 0-8 3.582032-8 8-.09375 27.570313 15.496094 52.796875 40.199219 65.039063l12.222656 6.121093c2.253907 1.125 4.902344 1.125 7.152344 0l12.226563-6.121093c24.703124-12.242188 40.292968-37.46875 40.199218-65.039063 0-4.417968-3.582031-8-8-8zm-40.082031 16c-.5 5.75-3.371094 11.03125-7.917969 14.582032-4.550781-3.550782-7.417968-8.832032-7.921875-14.582032zm.730469 42.726563-8.648438 4.328125-8.648437-4.328125c-16.699219-8.273438-28.230469-24.269531-30.800781-42.726563h15.578124c.589844 13.316406 8.363282 25.261719 20.292969 31.199219 2.253907 1.125 4.902344 1.125 7.152344 0 11.933594-5.9375 19.703125-17.882813 20.296875-31.199219h15.578125c-2.570313 18.457032-14.101563 34.453125-30.800781 42.726563zm0 0"/><path d="m414.179688 346.914062-110.175782-133.78125v-68.507812c-.035156-38.304688-16.191406-74.828125-44.511718-100.621094l-46.105469-41.921875c-3.050781-2.777343-7.714844-2.777343-10.765625 0l-46.105469 41.921875c-28.320313 25.792969-44.476563 62.316406-44.511719 100.621094v68.507812l-110.175781 133.78125c-1.179687 1.433594-1.82421875 3.234376-1.82421875 5.089844v16c0 8.835938 7.16406275 16 15.99999975 16h64c8.835938 0 16-7.164062 16-16v-7.703125l16-18.699219v10.402344c0 2.121094.84375 4.15625 2.34375 5.65625l24 24c1.5 1.5 3.535156 2.34375 5.65625 2.34375h128c2.121094 0 4.15625-.84375 5.65625-2.34375l24-24c1.5-1.5 2.34375-3.535156 2.34375-5.65625v-10.402344l16 18.671876v7.730468c0 8.835938 7.164063 16 16 16h64c8.835938 0 16-7.164062 16-16v-16c0-1.855468-.644531-3.65625-1.824218-5.089844zm-286.175782-202.289062c.027344-33.804688 14.285156-66.035156 39.28125-88.796875l40.71875-37.007813 40.71875 37.015626c24.992188 22.757812 39.25 54.988281 39.28125 88.789062v191.378906h-160zm-46.074218 207.507812c-1.242188 1.449219-1.925782 3.296876-1.925782 5.207032v10.664062h-8v-8h-16v8h-16v-8h-16v8h-8v-13.128906l96-116.574219v78.742188zm186.761718 15.871094h-121.375l-16-16h153.375zm131.3125 0h-8v-8h-16v8h-16v-8h-16v8h-8v-10.664062c0-1.910156-.683594-3.757813-1.929687-5.207032l-30.070313-35.089843v-78.742188l96 116.574219zm0 0"/><path d="m208.003906 160.003906c22.089844 0 40-17.910156 40-40 0-22.09375-17.910156-40-40-40-22.09375 0-40 17.90625-40 40 .027344 22.078125 17.917969 39.972656 40 40zm0-64c13.253906 0 24 10.742188 24 24 0 13.253906-10.746094 24-24 24s-24-10.746094-24-24c0-13.257812 10.746094-24 24-24zm0 0"/></g><path d="m376.003906 400.003906h16v48h-16zm0 0" fill="url(#c)"/><path d="m376.003906 464.003906h16v16h-16zm0 0" fill="url(#c)"/><path d="m344.003906 416.003906h16v16h-16zm0 0" fill="url(#d)"/><path d="m344.003906 448.003906h16v16h-16zm0 0" fill="url(#d)"/><path d="m24.003906 400.003906h16v48h-16zm0 0" fill="url(#e)"/><path d="m24.003906 464.003906h16v16h-16zm0 0" fill="url(#e)"/><path d="m56.003906 416.003906h16v16h-16zm0 0" fill="url(#f)"/><path d="m56.003906 448.003906h16v16h-16zm0 0" fill="url(#f)"/><path d="m168.003906 304.003906h80v16h-80zm0 0" fill="url(#b)"/><path d="m168.003906 272.003906h32v16h-32zm0 0" fill="url(#g)"/><path d="m216.003906 272.003906h32v16h-32zm0 0" fill="url(#h)"/></svg>